<?xml version="1.0" encoding="iso-8859-1"?>
<!-- Uploaded to: SVG Repo, www.svgrepo.com, Generator: SVG Repo Mixer Tools -->
<svg xmlns="http://www.w3.org/2000/svg" xmlns:xlink="http://www.w3.org/1999/xlink"
	 viewBox="0 0 512.001 512.001" xml:space="preserve">
<g>
	<g>
		<path d="M490.725,286.796c6.35-8.613,9.976-18.601,10.414-29.036c0.594-14.138-4.732-27.779-15.035-38.451
			c-17.596-18.09-38.177-34.102-61.298-47.7c0.231-6.987-0.998-13.911-3.679-20.494c-6.487-15.643-19.909-27.86-36.837-33.533
			c-40.582-14.08-83.699-21.218-128.156-21.218c-44.459,0-87.575,7.139-128.149,21.216c-9.188,3.079-17.655,8.317-24.492,15.153
			c-10.613,10.615-16.245,24.708-15.949,38.801c-21.773,12.74-41.236,27.631-57.965,44.359l-3.263,3.263
			c-0.131,0.131-0.26,0.266-0.389,0.402c-10.412,11.184-15.519,24.641-14.768,38.919c0.536,10.182,4.134,19.917,10.341,28.318
			C7.661,313.491,0.258,342.693,0,371.926c0,0.046,0,0.092,0,0.138v0.54c0,0.816,0.064,1.63,0.191,2.436
			c2.58,16.351,13.408,29.97,28.969,36.439c6.546,2.761,13.431,4.161,20.464,4.161c14.717,0,28.178-6.188,36.979-16.992
			c3.222-3.754,6.363-7.369,9.371-10.376c7.273-7.274,15.023-13.822,23.127-19.547c10.156,5.849,22.071,8.993,34.51,8.993
			c9.403,0,18.513-1.778,27.079-5.285c2.491-0.974,4.794-1.845,6.977-2.64c11.832,12.592,29.421,20.049,48.504,20.049
			c2.237,0,4.504-0.106,6.739-0.315c0.092-0.009,0.182-0.019,0.274-0.028c4.06-0.451,9.07-0.451,13.492-0.451
			c4.441,0,9.307,0.251,14.031,0.499c2.169,0.211,4.371,0.318,6.553,0.318c17.799,0,34.927-6.918,46.996-18.984
			c0.46-0.46,0.908-0.921,1.341-1.379c2.393,0.859,4.535,1.696,6.45,2.517c0.069,0.029,0.139,0.059,0.207,0.088
			c8.494,3.498,17.588,5.272,27.023,5.272c12.466,0,24.372-3.089,34.501-8.838c12.565,9.068,23.564,19.104,32.788,29.928
			c8.536,10.134,20.952,16.141,34.971,16.919c0.148,0.008,0.295,0.015,0.443,0.019c14.627,0.425,28.534-4.783,37.828-14.081
			c7.746-7.744,12.19-18.31,12.19-28.992v-0.541C512,342.646,504.85,314.105,490.725,286.796z M73.88,366.17
			c-3.833,3.83-7.457,8.003-11.139,12.297c-0.106,0.124-0.21,0.249-0.313,0.376c-2.836,3.523-7.503,5.543-12.803,5.543
			c-2.807,0-5.692-0.593-8.343-1.716c-0.035-0.015-0.07-0.029-0.105-0.044c-5.19-2.151-8.753-6.272-9.912-11.404
			c0.327-21.219,5.221-42.444,14.253-62.318l48.09,39.856C86.754,354.089,80.153,359.896,73.88,366.17z M169.183,343.376
			c-0.085,0.033-0.171,0.068-0.256,0.103c-4.744,1.954-10.04,2.987-15.315,2.987c-8.706,0-17.082-2.798-23.085-7.693l-0.042-0.042
			c-0.692-0.692-1.439-1.3-2.223-1.839l-77.46-64.196c-5.134-4.471-8.128-10.103-8.432-15.866
			c-0.301-5.706,1.748-10.875,6.261-15.795l3.047-3.047c13.506-13.505,29.091-25.691,46.459-36.361l73.056,140.969
			C170.529,342.854,169.866,343.108,169.183,343.376z M305.832,343.988c-0.013,0.024-0.022,0.049-0.033,0.073
			c-0.016,0.03-0.033,0.058-0.049,0.089c-0.729,1.458-1.804,2.846-3.592,4.635c-6.157,6.155-15.463,9.83-24.896,9.83
			c-1.252,0-2.515-0.064-3.753-0.193c-0.261-0.027-0.523-0.048-0.784-0.063c-5-0.264-10.666-0.563-16.047-0.563
			c-5.185,0-11.054,0-16.782,0.625c-1.238,0.112-2.489,0.169-3.722,0.169c-12.52,0-23.942-5.806-29.162-14.799L119.19,174.33
			c-1.424-6.698,0.961-14.058,6.402-19.501c3.448-3.447,7.727-6.087,12.374-7.636c0.063-0.021,0.124-0.042,0.185-0.064
			c37.295-12.951,76.991-19.517,117.984-19.517c40.989,0,80.685,6.567,117.986,19.517c0.061,0.022,0.122,0.043,0.183,0.064
			c8.382,2.794,14.925,8.585,17.917,15.8c1.463,3.588,1.737,7.411,0.846,11.379L305.832,343.988z M383.647,337.503
			c-0.001,0-0.001,0.001-0.001,0.001c-0.354,0.295-0.698,0.607-1.028,0.936l-0.043,0.042c-5.989,4.864-14.442,7.643-23.296,7.643
			c-5.224,0-10.418-0.996-15.032-2.88c-0.769-0.329-1.568-0.657-2.383-0.987l72.298-140.575c18.596,11.474,35.208,24.68,49.5,39.373
			c4.325,4.48,6.488,9.802,6.253,15.391c-0.248,5.907-3.266,11.689-8.496,16.293L383.647,337.503z M480.748,372.332
			c0,2.416-1.133,4.992-3.037,6.893c-3.191,3.192-8.706,5.052-14.66,4.945c-5.313-0.343-9.663-2.365-12.594-5.852
			c-0.023-0.027-0.046-0.054-0.069-0.081c-9.048-10.624-19.491-20.557-31.18-29.678l47.534-39.583
			c9.289,20.421,14.006,41.477,14.006,62.816V372.332z" fill="#ffffff"/>
	</g>
</g>
</svg>